{
	"asset":{
		"generator":"Khronos glTF Blender I/O v4.5.48",
		"version":"2.0"
	},
	"scene":0,
	"scenes":[
		{
			"name":"Scene",
			"nodes":[
				0
			]
		}
	],
	"nodes":[
		{
			"mesh":0,
			"name":"Cube.008",
			"rotation":[
				-0.013921897858381271,
				-0.10694465786218643,
				0.15986841917037964,
				0.9812293648719788
			],
			"scale":[
				0.21747446060180664,
				0.045171916484832764,
				0.319449782371521
			]
		}
	],
	"materials":[
		{
			"doubleSided":true,
			"name":"cover",
			"pbrMetallicRoughness":{
				"baseColorFactor":[
					0.14228028059005737,
					0.015869922935962677,
					0.019536303356289864,
					1
				],
				"metallicFactor":0,
				"roughnessFactor":0.5
			}
		},
		{
			"doubleSided":true,
			"name":"pages",
			"pbrMetallicRoughness":{
				"baseColorFactor":[
					0.41406214237213135,
					0.3305943012237549,
					0.21419048309326172,
					1
				],
				"metallicFactor":0,
				"roughnessFactor":0.5
			}
		}
	],
	"meshes":[
		{
			"name":"Cube.008",
			"primitives":[
				{
					"attributes":{
						"POSITION":0,
						"NORMAL":1,
						"TEXCOORD_0":2
					},
					"indices":3,
					"material":0
				},
				{
					"attributes":{
						"POSITION":4,
						"NORMAL":5,
						"TEXCOORD_0":6
					},
					"indices":7,
					"material":1
				}
			]
		}
	],
	"accessors":[
		{
			"bufferView":0,
			"componentType":5126,
			"count":802,
			"max":[
				3.7277445793151855,
				9.152787208557129,
				2.628147840499878
			],
			"min":[
				-3.8356940746307373,
				-5.135457992553711,
				-2.5429952144622803
			],
			"type":"VEC3"
		},
		{
			"bufferView":1,
			"componentType":5126,
			"count":802,
			"type":"VEC3"
		},
		{
			"bufferView":2,
			"componentType":5126,
			"count":802,
			"type":"VEC2"
		},
		{
			"bufferView":3,
			"componentType":5123,
			"count":1620,
			"type":"SCALAR"
		},
		{
			"bufferView":4,
			"componentType":5126,
			"count":120,
			"max":[
				3.5651438236236572,
				8.486120223999023,
				2.414346694946289
			],
			"min":[
				-3.555771589279175,
				-4.270682334899902,
				-2.410003185272217
			],
			"type":"VEC3"
		},
		{
			"bufferView":5,
			"componentType":5126,
			"count":120,
			"type":"VEC3"
		},
		{
			"bufferView":6,
			"componentType":5126,
			"count":120,
			"type":"VEC2"
		},
		{
			"bufferView":7,
			"componentType":5123,
			"count":180,
			"type":"SCALAR"
		}
	],
	"bufferViews":[
		{
			"buffer":0,
			"byteLength":9624,
			"byteOffset":0,
			"target":34962
		},
		{
			"buffer":0,
			"byteLength":9624,
			"byteOffset":9624,
			"target":34962
		},
		{
			"buffer":0,
			"byteLength":6416,
			"byteOffset":19248,
			"target":34962
		},
		{
			"buffer":0,
			"byteLength":3240,
			"byteOffset":25664,
			"target":34963
		},
		{
			"buffer":0,
			"byteLength":1440,
			"byteOffset":28904,
			"target":34962
		},
		{
			"buffer":0,
			"byteLength":1440,
			"byteOffset":30344,
			"target":34962
		},
		{
			"buffer":0,
			"byteLength":960,
			"byteOffset":31784,
			"target":34962
		},
		{
			"buffer":0,
			"byteLength":360,
			"byteOffset":32744,
			"target":34963
		}
	],
	"buffers":[
		{
			"byteLength":33104,
			"uri":"data:application/octet-stream;base64,"
		}
	]
}
