{
	"asset":{
		"generator":"Khronos glTF Blender I/O v4.5.48",
		"version":"2.0"
	},
	"scene":0,
	"scenes":[
		{
			"name":"Scene",
			"nodes":[
				0
			]
		}
	],
	"nodes":[
		{
			"mesh":0,
			"name":"Cube",
			"scale":[
				0.662071168422699,
				1.9114240407943726,
				1
			],
			"translation":[
				0,
				2.1723825931549072,
				-0.027938755229115486
			]
		}
	],
	"materials":[
		{
			"doubleSided":true,
			"name":"Material.001",
			"pbrMetallicRoughness":{
				"baseColorTexture":{
					"index":0
				},
				"metallicFactor":0,
				"roughnessFactor":0.5
			}
		}
	],
	"meshes":[
		{
			"name":"Cube.001",
			"primitives":[
				{
					"attributes":{
						"POSITION":0,
						"NORMAL":1,
						"TEXCOORD_0":2
					},
					"indices":3,
					"material":0
				}
			]
		}
	],
	"textures":[
		{
			"sampler":0,
			"source":0
		}
	],
	"images":[
		{
			"bufferView":4,
			"mimeType":"image/png",
			"name":"baketexture"
		}
	],
	"accessors":[
		{
			"bufferView":0,
			"componentType":5126,
			"count":14357,
			"max":[
				1.9844014644622803,
				1.2625830173492432,
				1.1401894092559814
			],
			"min":[
				-1.9844014644622803,
				-1.1287497282028198,
				-1.0843119621276855
			],
			"type":"VEC3"
		},
		{
			"bufferView":1,
			"componentType":5126,
			"count":14357,
			"type":"VEC3"
		},
		{
			"bufferView":2,
			"componentType":5126,
			"count":14357,
			"type":"VEC2"
		},
		{
			"bufferView":3,
			"componentType":5123,
			"count":22620,
			"type":"SCALAR"
		}
	],
	"bufferViews":[
		{
			"buffer":0,
			"byteLength":172284,
			"byteOffset":0,
			"target":34962
		},
		{
			"buffer":0,
			"byteLength":172284,
			"byteOffset":172284,
			"target":34962
		},
		{
			"buffer":0,
			"byteLength":114856,
			"byteOffset":344568,
			"target":34962
		},
		{
			"buffer":0,
			"byteLength":45240,
			"byteOffset":459424,
			"target":34963
		},
		{
			"buffer":0,
			"byteLength":958151,
			"byteOffset":504664
		}
	],
	"samplers":[
		{
			"magFilter":9729,
			"minFilter":9987
		}
	],
	"buffers":[
		{
			"byteLength":1462816,
			"uri":"data:application/octet-stream;base64,"
		}
	]
}
